<svg width="101" height="29" viewBox="0 0 101 29" fill="none" xmlns="http://www.w3.org/2000/svg">
<path d="M11 24.23C11.304 24.4056 11.6489 24.498 12 24.498C12.3511 24.498 12.696 24.4056 13 24.23L20 20.23C20.3037 20.0547 20.556 19.8025 20.7315 19.4989C20.9071 19.1952 20.9996 18.8508 21 18.5V10.5C20.9996 10.1493 20.9071 9.80483 20.7315 9.50119C20.556 9.19754 20.3037 8.94539 20 8.77002L13 4.77002C12.696 4.59449 12.3511 4.50208 12 4.50208C11.6489 4.50208 11.304 4.59449 11 4.77002L4 8.77002C3.69626 8.94539 3.44398 9.19754 3.26846 9.50119C3.09294 9.80483 3.00036 10.1493 3 10.5V18.5C3.00036 18.8508 3.09294 19.1952 3.26846 19.4989C3.44398 19.8025 3.69626 20.0547 4 20.23L11 24.23Z" stroke="#00C896" stroke-width="1.5" stroke-linecap="round" stroke-linejoin="round"/>
<path d="M12 24.5V14.5" stroke="#00C896" stroke-width="1.5" stroke-linecap="round" stroke-linejoin="round"/>
<path d="M3.28999 9.5L12 14.5L20.71 9.5" stroke="#00C896" stroke-width="1.5" stroke-linecap="round" stroke-linejoin="round"/>
<path d="M7.5 6.77002L16.5 11.92" stroke="#00C896" stroke-width="1.5" stroke-linecap="round" stroke-linejoin="round"/>
<path d="M28.772 22V9.79C28.772 8.734 29.0653 7.90533 29.652 7.304C30.2533 6.688 31.17 6.38 32.402 6.38H34.69V8.558H32.93C32.4753 8.558 32.138 8.67533 31.918 8.91C31.7127 9.14467 31.61 9.48933 31.61 9.944V22H28.772ZM27.1 12.738V10.56H34.536V12.738H27.1ZM36.692 22V10.252H39.508V22H36.692ZM36.648 8.69V6.182H39.574V8.69H36.648ZM42.7724 22V10.252H45.3244L45.4344 13.552L45.1044 13.42C45.2218 12.5987 45.4638 11.9387 45.8304 11.44C46.1971 10.9413 46.6444 10.5747 47.1724 10.34C47.7004 10.1053 48.2798 9.988 48.9104 9.988C49.7758 9.988 50.5018 10.1787 51.0884 10.56C51.6898 10.9413 52.1444 11.4693 52.4524 12.144C52.7604 12.804 52.9144 13.574 52.9144 14.454V22H50.0984V15.356C50.0984 14.696 50.0324 14.1387 49.9004 13.684C49.7684 13.2293 49.5484 12.8847 49.2404 12.65C48.9471 12.4007 48.5511 12.276 48.0524 12.276C47.3044 12.276 46.7031 12.54 46.2484 13.068C45.8084 13.596 45.5884 14.3587 45.5884 15.356V22H42.7724ZM59.1375 22.264C57.9055 22.264 56.9155 21.9853 56.1675 21.428C55.4195 20.856 55.0455 20.064 55.0455 19.052C55.0455 18.04 55.3608 17.248 55.9915 16.676C56.6222 16.104 57.5828 15.6933 58.8735 15.444L62.7675 14.674C62.7675 13.838 62.5768 13.2147 62.1955 12.804C61.8142 12.3787 61.2495 12.166 60.5015 12.166C59.8268 12.166 59.2915 12.3273 58.8955 12.65C58.5142 12.958 58.2502 13.4053 58.1035 13.992L55.2435 13.86C55.4782 12.6133 56.0502 11.66 56.9595 11C57.8688 10.3253 59.0495 9.988 60.5015 9.988C62.1735 9.988 63.4348 10.4133 64.2855 11.264C65.1508 12.1 65.5835 13.3027 65.5835 14.872V19.14C65.5835 19.448 65.6348 19.6607 65.7375 19.778C65.8548 19.8953 66.0235 19.954 66.2435 19.954H66.6175V22C66.5295 22.0293 66.3828 22.0513 66.1775 22.066C65.9868 22.0807 65.7888 22.088 65.5835 22.088C65.0995 22.088 64.6668 22.0147 64.2855 21.868C63.9042 21.7067 63.6108 21.4353 63.4055 21.054C63.2002 20.658 63.0975 20.1227 63.0975 19.448L63.3395 19.624C63.2222 20.1373 62.9655 20.5993 62.5695 21.01C62.1882 21.406 61.7042 21.714 61.1175 21.934C60.5308 22.154 59.8708 22.264 59.1375 22.264ZM59.7095 20.218C60.3402 20.218 60.8828 20.0933 61.3375 19.844C61.7922 19.5947 62.1442 19.25 62.3935 18.81C62.6428 18.37 62.7675 17.8493 62.7675 17.248V16.588L59.7315 17.204C59.1008 17.336 58.6462 17.534 58.3675 17.798C58.1035 18.0473 57.9715 18.3773 57.9715 18.788C57.9715 19.2427 58.1182 19.5947 58.4115 19.844C58.7195 20.0933 59.1522 20.218 59.7095 20.218ZM68.4463 22V10.252H71.0863L71.1963 13.508L70.9543 13.464C71.1303 12.3347 71.4603 11.5207 71.9443 11.022C72.4429 10.5087 73.1176 10.252 73.9683 10.252H75.0463V12.672H73.9463C73.3449 12.672 72.8463 12.76 72.4503 12.936C72.0543 13.112 71.7536 13.3907 71.5483 13.772C71.3576 14.1387 71.2623 14.6227 71.2623 15.224V22H68.4463ZM81.6713 22.264C80.498 22.264 79.4787 22.0147 78.6133 21.516C77.748 21.0027 77.0733 20.284 76.5893 19.36C76.12 18.436 75.8853 17.358 75.8853 16.126C75.8853 14.894 76.12 13.8233 76.5893 12.914C77.0733 11.99 77.748 11.2713 78.6133 10.758C79.4787 10.2447 80.498 9.988 81.6713 9.988C82.6687 9.988 83.556 10.164 84.3333 10.516C85.1107 10.868 85.7413 11.374 86.2253 12.034C86.724 12.6793 87.032 13.4713 87.1493 14.41L84.2453 14.564C84.128 13.816 83.8347 13.2513 83.3653 12.87C82.9107 12.474 82.346 12.276 81.6713 12.276C80.762 12.276 80.058 12.6207 79.5593 13.31C79.0607 13.9847 78.8113 14.9233 78.8113 16.126C78.8113 17.3433 79.0607 18.2893 79.5593 18.964C80.058 19.6387 80.762 19.976 81.6713 19.976C82.3607 19.976 82.9327 19.778 83.3873 19.382C83.8567 18.986 84.1427 18.37 84.2453 17.534L87.1493 17.666C87.032 18.6047 86.7313 19.4187 86.2473 20.108C85.7633 20.7973 85.1327 21.3327 84.3553 21.714C83.578 22.0807 82.6833 22.264 81.6713 22.264ZM89.1142 22V6.38H91.9302V12.936H91.5782C91.6956 12.2613 91.9302 11.7113 92.2822 11.286C92.6342 10.846 93.0669 10.5233 93.5802 10.318C94.0936 10.098 94.6582 9.988 95.2742 9.988C96.1396 9.988 96.8656 10.1787 97.4522 10.56C98.0536 10.9267 98.5009 11.4473 98.7942 12.122C99.1022 12.7967 99.2562 13.574 99.2562 14.454V22H96.4402V15.136C96.4402 14.1827 96.2789 13.4713 95.9562 13.002C95.6336 12.518 95.1276 12.276 94.4382 12.276C93.6756 12.276 93.0669 12.5253 92.6122 13.024C92.1576 13.5227 91.9302 14.2487 91.9302 15.202V22H89.1142Z" fill="#00C896"/>
</svg>
